<mxfile host="app.diagrams.net" modified="2023-03-06T13:11:08.251Z" agent="5.0 (Macintosh; Intel Mac OS X 10_15_7) AppleWebKit/537.36 (KHTML, like Gecko) Chrome/110.0.0.0 Safari/537.36 Edg/110.0.1587.63" etag="9RvRfW-KAY9nCcj0VFkA" version="21.0.2" type="github">
  <diagram name="第 1 页" id="BzzHqqcvCMcl7D8UJXnb">
    <mxGraphModel dx="1657" dy="446" grid="1" gridSize="10" guides="1" tooltips="1" connect="1" arrows="1" fold="1" page="1" pageScale="1" pageWidth="827" pageHeight="1169" math="0" shadow="0">
      <root>
        <mxCell id="0" />
        <mxCell id="1" parent="0" />
        <mxCell id="WGEDC44piUNgmNHtaHlk-28" value="&lt;p style=&quot;margin: 0px; font-variant-numeric: normal; font-variant-east-asian: normal; font-stretch: normal; line-height: normal; font-family: &amp;quot;PingFang SC&amp;quot;; text-align: start;&quot; class=&quot;p1&quot;&gt;&lt;br&gt;&lt;/p&gt;" style="rounded=0;whiteSpace=wrap;html=1;" vertex="1" parent="1">
          <mxGeometry x="-11" y="370" width="180" height="70" as="geometry" />
        </mxCell>
        <mxCell id="WGEDC44piUNgmNHtaHlk-22" value="" style="rounded=0;whiteSpace=wrap;html=1;fillColor=#d5e8d4;strokeColor=#82b366;dashed=1;" vertex="1" parent="1">
          <mxGeometry x="-80" y="190" width="140" height="130" as="geometry" />
        </mxCell>
        <mxCell id="WGEDC44piUNgmNHtaHlk-1" value="" style="rounded=0;whiteSpace=wrap;html=1;" vertex="1" parent="1">
          <mxGeometry x="-10" y="80" width="180" height="80" as="geometry" />
        </mxCell>
        <mxCell id="WGEDC44piUNgmNHtaHlk-13" value="" style="edgeStyle=orthogonalEdgeStyle;rounded=0;orthogonalLoop=1;jettySize=auto;html=1;" edge="1" parent="1" source="WGEDC44piUNgmNHtaHlk-2" target="WGEDC44piUNgmNHtaHlk-9">
          <mxGeometry relative="1" as="geometry" />
        </mxCell>
        <mxCell id="WGEDC44piUNgmNHtaHlk-2" value="pooling_disk_req" style="rounded=0;whiteSpace=wrap;html=1;" vertex="1" parent="1">
          <mxGeometry x="-70" y="200" width="120" height="40" as="geometry" />
        </mxCell>
        <mxCell id="WGEDC44piUNgmNHtaHlk-31" style="edgeStyle=orthogonalEdgeStyle;rounded=0;orthogonalLoop=1;jettySize=auto;html=1;entryX=0.5;entryY=0;entryDx=0;entryDy=0;curved=1;" edge="1" parent="1" source="WGEDC44piUNgmNHtaHlk-8" target="WGEDC44piUNgmNHtaHlk-29">
          <mxGeometry relative="1" as="geometry" />
        </mxCell>
        <mxCell id="WGEDC44piUNgmNHtaHlk-8" value="&lt;h3 style=&quot;text-align: left; padding-left: 0px; font-size: 12px;&quot; data-slate-node=&quot;element&quot; data-indent=&quot;0&quot; data-uuid=&quot;cea87ff0-bbfe-11ed-9027-53a240076980&quot; data-morpho-type=&quot;heading&quot; class=&quot;mp-heading&quot;&gt;&lt;span style=&quot;font-weight: normal; font-size: 12px;&quot;&gt;DiskFilter&lt;/span&gt;&lt;/h3&gt;" style="rounded=1;whiteSpace=wrap;html=1;fontSize=12;" vertex="1" parent="1">
          <mxGeometry x="110" y="270" width="120" height="40" as="geometry" />
        </mxCell>
        <mxCell id="WGEDC44piUNgmNHtaHlk-30" style="edgeStyle=orthogonalEdgeStyle;rounded=0;orthogonalLoop=1;jettySize=auto;html=1;entryX=0.5;entryY=0;entryDx=0;entryDy=0;curved=1;" edge="1" parent="1" source="WGEDC44piUNgmNHtaHlk-9" target="WGEDC44piUNgmNHtaHlk-29">
          <mxGeometry relative="1" as="geometry" />
        </mxCell>
        <mxCell id="WGEDC44piUNgmNHtaHlk-9" value="&lt;h3 style=&quot;text-align: left; padding-left: 0px; font-size: 12px;&quot; data-slate-node=&quot;element&quot; data-indent=&quot;0&quot; data-uuid=&quot;cea87ff0-bbfe-11ed-9027-53a240076980&quot; data-morpho-type=&quot;heading&quot; class=&quot;mp-heading&quot;&gt;&lt;span style=&quot;font-weight: normal; font-size: 12px;&quot;&gt;PoolingDiskFilter&lt;/span&gt;&lt;/h3&gt;" style="rounded=1;whiteSpace=wrap;html=1;fontSize=12;" vertex="1" parent="1">
          <mxGeometry x="-70" y="270" width="120" height="40" as="geometry" />
        </mxCell>
        <mxCell id="WGEDC44piUNgmNHtaHlk-14" value="" style="edgeStyle=orthogonalEdgeStyle;rounded=0;orthogonalLoop=1;jettySize=auto;html=1;" edge="1" parent="1" source="WGEDC44piUNgmNHtaHlk-11" target="WGEDC44piUNgmNHtaHlk-8">
          <mxGeometry relative="1" as="geometry" />
        </mxCell>
        <mxCell id="WGEDC44piUNgmNHtaHlk-11" value="disk_reqs" style="rounded=0;whiteSpace=wrap;html=1;" vertex="1" parent="1">
          <mxGeometry x="110" y="200" width="120" height="40" as="geometry" />
        </mxCell>
        <mxCell id="WGEDC44piUNgmNHtaHlk-16" style="edgeStyle=orthogonalEdgeStyle;rounded=0;orthogonalLoop=1;jettySize=auto;html=1;exitX=0.5;exitY=1;exitDx=0;exitDy=0;entryX=0.5;entryY=0;entryDx=0;entryDy=0;elbow=vertical;curved=1;" edge="1" parent="1" source="WGEDC44piUNgmNHtaHlk-15" target="WGEDC44piUNgmNHtaHlk-2">
          <mxGeometry relative="1" as="geometry" />
        </mxCell>
        <mxCell id="WGEDC44piUNgmNHtaHlk-17" style="edgeStyle=orthogonalEdgeStyle;rounded=0;orthogonalLoop=1;jettySize=auto;html=1;entryX=0.5;entryY=0;entryDx=0;entryDy=0;curved=1;" edge="1" parent="1" source="WGEDC44piUNgmNHtaHlk-15" target="WGEDC44piUNgmNHtaHlk-11">
          <mxGeometry relative="1" as="geometry" />
        </mxCell>
        <mxCell id="WGEDC44piUNgmNHtaHlk-20" value="&lt;span style=&quot;color: rgb(0, 0, 0); font-family: Helvetica; font-size: 12px; font-style: normal; font-variant-ligatures: normal; font-variant-caps: normal; font-weight: 400; letter-spacing: normal; orphans: 2; text-indent: 0px; text-transform: none; widows: 2; word-spacing: 0px; -webkit-text-stroke-width: 0px; background-color: rgb(251, 251, 251); text-decoration-thickness: initial; text-decoration-style: initial; text-decoration-color: initial; float: none; display: inline !important;&quot;&gt;1.构建磁盘请求&lt;/span&gt;" style="text;whiteSpace=wrap;html=1;align=center;fillColor=default;" vertex="1" parent="1">
          <mxGeometry x="37.25" y="165" width="83.5" height="25" as="geometry" />
        </mxCell>
        <mxCell id="WGEDC44piUNgmNHtaHlk-15" value="scheduler_hints" style="rounded=0;whiteSpace=wrap;html=1;" vertex="1" parent="1">
          <mxGeometry x="29" y="120" width="100" height="30" as="geometry" />
        </mxCell>
        <mxCell id="WGEDC44piUNgmNHtaHlk-29" value="select_disks" style="rounded=0;whiteSpace=wrap;html=1;" vertex="1" parent="1">
          <mxGeometry x="29" y="380" width="100" height="30" as="geometry" />
        </mxCell>
        <mxCell id="WGEDC44piUNgmNHtaHlk-32" value="2. filter结果写入" style="text;whiteSpace=wrap;html=1;align=center;fillColor=default;" vertex="1" parent="1">
          <mxGeometry x="29.5" y="333" width="101" height="25" as="geometry" />
        </mxCell>
        <mxCell id="WGEDC44piUNgmNHtaHlk-33" value="&lt;span style=&quot;color: rgb(0, 0, 0); font-family: Helvetica; font-size: 12px; font-style: normal; font-variant-ligatures: normal; font-variant-caps: normal; font-weight: 400; letter-spacing: normal; orphans: 2; text-indent: 0px; text-transform: none; widows: 2; word-spacing: 0px; -webkit-text-stroke-width: 0px; background-color: rgb(251, 251, 251); text-decoration-thickness: initial; text-decoration-style: initial; text-decoration-color: initial; float: none; display: inline !important;&quot;&gt;api_request&lt;/span&gt;" style="text;whiteSpace=wrap;html=1;align=center;" vertex="1" parent="1">
          <mxGeometry x="29" y="85" width="100" height="40" as="geometry" />
        </mxCell>
        <mxCell id="WGEDC44piUNgmNHtaHlk-34" value="&lt;span style=&quot;color: rgb(0, 0, 0); font-family: &amp;quot;PingFang SC&amp;quot;; font-size: 12px; font-style: normal; font-variant-ligatures: normal; font-variant-caps: normal; font-weight: 400; letter-spacing: normal; orphans: 2; text-indent: 0px; text-transform: none; widows: 2; word-spacing: 0px; -webkit-text-stroke-width: 0px; background-color: rgb(251, 251, 251); text-decoration-thickness: initial; text-decoration-style: initial; text-decoration-color: initial; float: none; display: inline !important;&quot;&gt;instance_schedule_result&lt;/span&gt;" style="text;whiteSpace=wrap;html=1;align=center;" vertex="1" parent="1">
          <mxGeometry x="-6" y="410" width="170" height="40" as="geometry" />
        </mxCell>
        <mxCell id="WGEDC44piUNgmNHtaHlk-35" value="&lt;p style=&quot;margin: 0px; font-variant-numeric: normal; font-variant-east-asian: normal; font-stretch: normal; line-height: normal; font-family: &amp;quot;PingFang SC&amp;quot;; text-align: start;&quot; class=&quot;p1&quot;&gt;&lt;br&gt;&lt;/p&gt;" style="rounded=0;whiteSpace=wrap;html=1;" vertex="1" parent="1">
          <mxGeometry x="290" y="370" width="180" height="70" as="geometry" />
        </mxCell>
        <mxCell id="WGEDC44piUNgmNHtaHlk-36" value="&lt;p style=&quot;margin: 0px; font-variant-numeric: normal; font-variant-east-asian: normal; font-stretch: normal; line-height: normal; font-family: &amp;quot;PingFang SC&amp;quot;; text-align: start;&quot; class=&quot;p1&quot;&gt;&lt;font style=&quot;font-size: 12px;&quot;&gt;multi_disk_info&lt;/font&gt;&lt;/p&gt;" style="rounded=0;whiteSpace=wrap;html=1;" vertex="1" parent="1">
          <mxGeometry x="330" y="380" width="100" height="30" as="geometry" />
        </mxCell>
        <mxCell id="WGEDC44piUNgmNHtaHlk-37" value="&lt;p style=&quot;margin: 0px; font-variant-numeric: normal; font-variant-east-asian: normal; font-stretch: normal; line-height: normal; font-family: &amp;quot;PingFang SC&amp;quot;; text-align: start;&quot; class=&quot;p1&quot;&gt;scheduler_result&lt;br&gt;&lt;/p&gt;" style="text;whiteSpace=wrap;html=1;align=center;" vertex="1" parent="1">
          <mxGeometry x="295" y="410" width="170" height="40" as="geometry" />
        </mxCell>
        <mxCell id="WGEDC44piUNgmNHtaHlk-38" style="edgeStyle=orthogonalEdgeStyle;rounded=0;orthogonalLoop=1;jettySize=auto;html=1;exitX=1;exitY=0.5;exitDx=0;exitDy=0;entryX=0;entryY=0.5;entryDx=0;entryDy=0;curved=1;" edge="1" parent="1" source="WGEDC44piUNgmNHtaHlk-29" target="WGEDC44piUNgmNHtaHlk-36">
          <mxGeometry relative="1" as="geometry" />
        </mxCell>
        <mxCell id="WGEDC44piUNgmNHtaHlk-56" value="" style="rounded=0;whiteSpace=wrap;html=1;" vertex="1" parent="1">
          <mxGeometry x="290" y="220" width="180" height="80" as="geometry" />
        </mxCell>
        <mxCell id="WGEDC44piUNgmNHtaHlk-61" style="edgeStyle=orthogonalEdgeStyle;rounded=0;orthogonalLoop=1;jettySize=auto;html=1;entryX=0.5;entryY=1;entryDx=0;entryDy=0;startArrow=none;" edge="1" parent="1" source="WGEDC44piUNgmNHtaHlk-72" target="WGEDC44piUNgmNHtaHlk-70">
          <mxGeometry relative="1" as="geometry">
            <mxPoint x="380" y="180" as="targetPoint" />
          </mxGeometry>
        </mxCell>
        <mxCell id="WGEDC44piUNgmNHtaHlk-58" value="&lt;span style=&quot;color: rgb(0, 0, 0); font-family: Helvetica; font-size: 12px; font-style: normal; font-variant-ligatures: normal; font-variant-caps: normal; font-weight: 400; letter-spacing: normal; orphans: 2; text-indent: 0px; text-transform: none; widows: 2; word-spacing: 0px; -webkit-text-stroke-width: 0px; background-color: rgb(251, 251, 251); text-decoration-thickness: initial; text-decoration-style: initial; text-decoration-color: initial; float: none; display: inline !important;&quot;&gt;api_request&lt;/span&gt;" style="text;whiteSpace=wrap;html=1;align=center;" vertex="1" parent="1">
          <mxGeometry x="330" y="228" width="100" height="40" as="geometry" />
        </mxCell>
        <mxCell id="WGEDC44piUNgmNHtaHlk-59" value="scheduler_result" style="rounded=0;whiteSpace=wrap;html=1;" vertex="1" parent="1">
          <mxGeometry x="330" y="256" width="100" height="30" as="geometry" />
        </mxCell>
        <mxCell id="WGEDC44piUNgmNHtaHlk-60" style="edgeStyle=orthogonalEdgeStyle;rounded=0;orthogonalLoop=1;jettySize=auto;html=1;entryX=0.5;entryY=1;entryDx=0;entryDy=0;startArrow=none;" edge="1" parent="1" source="WGEDC44piUNgmNHtaHlk-67" target="WGEDC44piUNgmNHtaHlk-59">
          <mxGeometry relative="1" as="geometry" />
        </mxCell>
        <mxCell id="WGEDC44piUNgmNHtaHlk-63" value="&lt;span style=&quot;color: rgb(0, 0, 0); font-family: Helvetica; font-size: 12px; font-style: normal; font-variant-ligatures: normal; font-variant-caps: normal; font-weight: 400; letter-spacing: normal; orphans: 2; text-indent: 0px; text-transform: none; widows: 2; word-spacing: 0px; -webkit-text-stroke-width: 0px; background-color: rgb(251, 251, 251); text-decoration-thickness: initial; text-decoration-style: initial; text-decoration-color: initial; float: none; display: inline !important;&quot;&gt;3.结果写入&lt;br style=&quot;border-color: var(--border-color);&quot;&gt;scheduler_result&lt;br&gt;&lt;/span&gt;" style="text;whiteSpace=wrap;html=1;align=center;fillColor=default;" vertex="1" parent="1">
          <mxGeometry x="186" y="377" width="83.5" height="33" as="geometry" />
        </mxCell>
        <mxCell id="WGEDC44piUNgmNHtaHlk-68" value="" style="edgeStyle=orthogonalEdgeStyle;rounded=0;orthogonalLoop=1;jettySize=auto;html=1;entryX=0.5;entryY=1;entryDx=0;entryDy=0;endArrow=none;" edge="1" parent="1" source="WGEDC44piUNgmNHtaHlk-36" target="WGEDC44piUNgmNHtaHlk-67">
          <mxGeometry relative="1" as="geometry">
            <mxPoint x="380" y="380" as="sourcePoint" />
            <mxPoint x="380" y="286" as="targetPoint" />
          </mxGeometry>
        </mxCell>
        <mxCell id="WGEDC44piUNgmNHtaHlk-67" value="&lt;span style=&quot;color: rgb(0, 0, 0); font-family: Helvetica; font-size: 12px; font-style: normal; font-variant-ligatures: normal; font-variant-caps: normal; font-weight: 400; letter-spacing: normal; orphans: 2; text-indent: 0px; text-transform: none; widows: 2; word-spacing: 0px; -webkit-text-stroke-width: 0px; background-color: rgb(251, 251, 251); text-decoration-thickness: initial; text-decoration-style: initial; text-decoration-color: initial; float: none; display: inline !important;&quot;&gt;4.调度结果返回master，被写入api_request&lt;br&gt;&lt;/span&gt;" style="text;whiteSpace=wrap;html=1;align=center;fillColor=default;" vertex="1" parent="1">
          <mxGeometry x="324.12" y="310" width="111.75" height="40" as="geometry" />
        </mxCell>
        <mxCell id="WGEDC44piUNgmNHtaHlk-70" value="nova-compute" style="ellipse;whiteSpace=wrap;html=1;" vertex="1" parent="1">
          <mxGeometry x="320" y="60" width="120" height="80" as="geometry" />
        </mxCell>
        <mxCell id="WGEDC44piUNgmNHtaHlk-73" value="" style="edgeStyle=orthogonalEdgeStyle;rounded=0;orthogonalLoop=1;jettySize=auto;html=1;entryX=0.5;entryY=1;entryDx=0;entryDy=0;endArrow=none;" edge="1" parent="1" source="WGEDC44piUNgmNHtaHlk-58" target="WGEDC44piUNgmNHtaHlk-72">
          <mxGeometry relative="1" as="geometry">
            <mxPoint x="380" y="140" as="targetPoint" />
            <mxPoint x="380" y="228" as="sourcePoint" />
          </mxGeometry>
        </mxCell>
        <mxCell id="WGEDC44piUNgmNHtaHlk-72" value="&lt;span style=&quot;color: rgb(0, 0, 0); font-family: Helvetica; font-size: 12px; font-style: normal; font-variant-ligatures: normal; font-variant-caps: normal; font-weight: 400; letter-spacing: normal; orphans: 2; text-indent: 0px; text-transform: none; widows: 2; word-spacing: 0px; -webkit-text-stroke-width: 0px; background-color: rgb(251, 251, 251); text-decoration-thickness: initial; text-decoration-style: initial; text-decoration-color: initial; float: none; display: inline !important;&quot;&gt;5. 任务分发&lt;br&gt;&lt;/span&gt;" style="text;whiteSpace=wrap;html=1;align=center;fillColor=default;" vertex="1" parent="1">
          <mxGeometry x="338.25" y="165" width="83.5" height="32.5" as="geometry" />
        </mxCell>
      </root>
    </mxGraphModel>
  </diagram>
</mxfile>
